<?xml version="1.0" encoding="UTF-8" standalone="no"?>
<!-- Created with Inkscape (http://www.inkscape.org/) -->

<svg
   width="475.52795"
   height="467.41348"
   viewBox="0 0 125.81678 123.66982"
   version="1.1"
   id="svg5"
   inkscape:version="1.2.2 (b0a8486, 2022-12-01)"
   sodipodi:docname="birdThick.svg"
   xmlns:inkscape="http://www.inkscape.org/namespaces/inkscape"
   xmlns:sodipodi="http://sodipodi.sourceforge.net/DTD/sodipodi-0.dtd"
   xmlns="http://www.w3.org/2000/svg"
   xmlns:svg="http://www.w3.org/2000/svg">
  <sodipodi:namedview
     id="namedview7"
     pagecolor="#ffffff"
     bordercolor="#999999"
     borderopacity="1"
     inkscape:showpageshadow="0"
     inkscape:pageopacity="0"
     inkscape:pagecheckerboard="0"
     inkscape:deskcolor="#d1d1d1"
     inkscape:document-units="mm"
     showgrid="false"
     inkscape:zoom="0.87332837"
     inkscape:cx="73.855382"
     inkscape:cy="290.26883"
     inkscape:window-width="1280"
     inkscape:window-height="765"
     inkscape:window-x="0"
     inkscape:window-y="0"
     inkscape:window-maximized="0"
     inkscape:current-layer="layer1" />
  <defs
     id="defs2">
    <inkscape:path-effect
       effect="spiro"
       id="path-effect5908"
       is_visible="true"
       lpeversion="1" />
    <inkscape:path-effect
       effect="spiro"
       id="path-effect5904"
       is_visible="true"
       lpeversion="1" />
    <inkscape:path-effect
       effect="spiro"
       id="path-effect5900"
       is_visible="true"
       lpeversion="1" />
    <inkscape:path-effect
       effect="spiro"
       id="path-effect5896"
       is_visible="true"
       lpeversion="1" />
    <inkscape:path-effect
       effect="spiro"
       id="path-effect8202"
       is_visible="true"
       lpeversion="1" />
    <inkscape:path-effect
       effect="spiro"
       id="path-effect8198"
       is_visible="true"
       lpeversion="1" />
    <inkscape:path-effect
       effect="spiro"
       id="path-effect6430"
       is_visible="true"
       lpeversion="1" />
    <inkscape:path-effect
       effect="spiro"
       id="path-effect6426"
       is_visible="true"
       lpeversion="1" />
    <inkscape:path-effect
       effect="spiro"
       id="path-effect6141"
       is_visible="true"
       lpeversion="1" />
    <inkscape:path-effect
       effect="spiro"
       id="path-effect6064"
       is_visible="true"
       lpeversion="1" />
    <inkscape:path-effect
       effect="spiro"
       id="path-effect6060"
       is_visible="true"
       lpeversion="1" />
    <inkscape:path-effect
       effect="spiro"
       id="path-effect5960"
       is_visible="true"
       lpeversion="1" />
    <inkscape:path-effect
       effect="spiro"
       id="path-effect5848"
       is_visible="true"
       lpeversion="1" />
    <inkscape:path-effect
       effect="spiro"
       id="path-effect5844"
       is_visible="true"
       lpeversion="1" />
    <inkscape:path-effect
       effect="spiro"
       id="path-effect3383"
       is_visible="true"
       lpeversion="1" />
  </defs>
  <g
     inkscape:label="Layer 1"
     inkscape:groupmode="layer"
     id="layer1"
     transform="translate(-24.816488,-37.727397)">
    <path
       style="fill:#f2f2f2;fill-opacity:0;stroke:#000000;stroke-width:1.905;stroke-dasharray:none;stroke-opacity:1"
       d="m 54.389404,54.182216 c 1.037234,-2.663459 3.295825,-4.82264 6.003245,-5.739015 2.707419,-0.916376 5.813104,-0.572832 8.254783,0.913125 2.142398,1.303821 3.702091,3.371409 5.049521,5.486651 1.347429,2.115243 2.549988,4.345588 4.219828,6.216804 3.368075,3.774252 8.282072,5.72366 12.364208,8.711147 4.008477,2.93358 7.207434,6.882105 9.651577,11.206448 2.444144,4.324342 4.158684,9.026642 5.522684,13.802968 0.5802,2.031706 1.11483,4.11775 2.24803,5.901096 1.12494,1.77034 2.82388,3.16947 4.77708,3.93407"
       id="path5958"
       inkscape:path-effect="#path-effect5960"
       inkscape:original-d="m 54.389404,54.182216 c 2.060967,-1.31109 12.103923,-3.514272 14.258028,-4.82589 2.154105,-1.311622 6.459564,10.111359 9.269349,11.703455 2.809783,1.592095 5.058351,4.027998 12.364208,8.711147 7.30586,4.683146 10.022771,16.485874 15.174261,25.009416 5.15148,8.523546 1.49895,3.93433 2.24803,5.901096 0.74908,1.96677 3.18499,2.62298 4.77708,3.93407"
       sodipodi:nodetypes="csssssc" />
    <path
       style="fill:#f2f2f2;fill-opacity:0;stroke:#000000;stroke-width:1.905;stroke-dasharray:none;stroke-opacity:1"
       d="m 50.65932,56.282699 c 2.36831,0.504255 4.524744,1.941878 5.901099,3.934066 1.397963,2.023465 1.973431,4.632291 1.405025,7.025119 -0.441803,1.859867 -1.525057,3.50673 -2.758291,4.967356 -1.233234,1.460626 -2.631918,2.775488 -3.855606,4.244121 -2.997527,3.597542 -4.892182,8.149554 -5.084742,12.828271 -0.19256,4.678718 1.368617,9.451441 4.474764,12.955628 2.100875,2.37009 4.841495,4.12201 7.776957,5.31116 2.935461,1.18916 6.067653,1.83401 9.213547,2.20057 11.270797,1.31329 22.933945,-0.97751 32.870697,-6.45625"
       id="path6058"
       inkscape:path-effect="#path-effect6060"
       inkscape:original-d="m 50.65932,56.282699 c 1.311619,0.749609 4.590009,1.217953 5.901099,3.934066 0.656413,1.359855 0.936948,4.683678 1.405025,7.025119 0.468077,2.341441 -5.204676,5.635308 -6.613897,9.211477 -1.217952,3.090788 -0.797049,19.133713 -0.609978,25.783899 0.187074,6.65018 11.183337,2.45391 16.990504,7.51173 5.807165,5.05782 22.380121,-4.76996 32.870697,-6.45625"
       sodipodi:nodetypes="csssssc" />
    <path
       style="fill:#f2f2f2;fill-opacity:0;stroke:#000000;stroke-width:1.905;stroke-dasharray:none;stroke-opacity:1"
       d="m 68.081615,75.110018 c 1.100782,6.329863 4.185358,12.30001 8.711147,16.860286 5.105611,5.144517 11.86046,8.398116 18.827319,10.397166 5.478089,1.57186 11.162099,2.42447 16.860279,2.52905"
       id="path6062"
       inkscape:path-effect="#path-effect6064"
       inkscape:original-d="m 68.081615,75.110018 c 2.90398,5.620358 5.807694,11.240452 8.711147,16.860286 2.90345,5.61983 12.551809,6.93171 18.827319,10.397166 6.275509,3.46546 11.240449,1.6863 16.860279,2.52905" />
    <path
       style="fill:#f2f2f2;fill-opacity:0;stroke:#000000;stroke-width:1.905;stroke-dasharray:none;stroke-opacity:1"
       d="M 54.376536,54.088422 50.877797,56.25134"
       id="path6139"
       inkscape:path-effect="#path-effect6141"
       inkscape:original-d="m 54.376536,54.088422 c -0.522394,1.365699 -1.82971,2.762507 -3.498739,2.162918"
       sodipodi:nodetypes="cc" />
    <path
       style="opacity:0.96;fill:#808080;fill-opacity:0;stroke:#000000;stroke-width:1.905;stroke-dasharray:none"
       d="m 24.845548,107.97646 c 14.308316,-0.78202 28.69154,-0.18755 42.886524,1.77253 14.946342,2.06383 29.701985,5.63852 44.758058,6.62197 9.05237,0.59129 18.16616,0.23775 27.14552,-1.05302"
       id="path5894"
       inkscape:path-effect="#path-effect5896"
       inkscape:original-d="m 24.845548,107.97646 c 14.295773,0.5911 28.591282,1.18195 42.886524,1.77253 14.295244,0.59058 29.838969,4.41491 44.758058,6.62197 14.91909,2.20706 16.50567,-0.82588 27.14552,-1.05302"
       sodipodi:nodetypes="cssc" />
    <path
       style="opacity:0.96;fill:#808080;fill-opacity:0;stroke:#000000;stroke-width:1.905;stroke-dasharray:none"
       d="m 149.79366,37.774451 c 0.69322,7.814291 0.21063,15.731851 -1.42653,23.4041 -0.75063,3.517683 -1.74238,6.985338 -2.3344,10.533162 -0.70475,4.223435 -0.83602,8.542183 -0.38907,12.800624 -0.24218,3.524893 -0.6317,7.039661 -1.1672,10.532048 -1.05421,6.875315 -2.67509,13.663645 -4.84081,20.273555"
       id="path5898"
       inkscape:path-effect="#path-effect5900"
       inkscape:original-d="m 149.79366,37.774451 c -0.52912,5.935721 -0.89688,17.46891 -1.42653,23.4041 -0.52965,5.935192 -3.24165,4.898082 -2.3344,10.533162 0.90725,5.635077 -0.46443,9.700218 -0.38907,12.800624 -1.1672,10.532048 -1.79394,5.465362 -1.1672,10.532048 0.62674,5.066685 -4.81851,13.391845 -4.84081,20.273555"
       sodipodi:nodetypes="csscsc" />
    <path
       style="opacity:0.96;fill:#808080;fill-opacity:0;stroke:#000000;stroke-width:1.905;stroke-dasharray:none"
       d="m 139.58054,128.11079 c 0.23595,5.09421 -0.0101,10.21064 -0.73387,15.2587 -0.8741,6.0968 -2.44583,12.09331 -4.67469,17.83502"
       id="path5902"
       inkscape:path-effect="#path-effect5904"
       inkscape:original-d="m 139.58054,128.11079 c -0.75173,5.21846 0.0184,10.04076 -0.73387,15.2587 -0.75225,5.21794 -3.96753,14.35648 -4.67469,17.83502"
       sodipodi:nodetypes="csc" />
    <path
       style="opacity:0.96;fill:#808080;fill-opacity:0;stroke:#000000;stroke-width:1.905;stroke-dasharray:none"
       d="m 139.58054,128.11079 c -6.94591,-0.7227 -13.88246,-1.5354 -20.80732,-2.43782 -15.28927,-1.99244 -30.547673,-4.42771 -45.484099,-8.25324 -8.743033,-2.23927 -17.370311,-4.95341 -26.209487,-6.77657 -7.319203,-1.50965 -14.765477,-2.40274 -22.234086,-2.6667"
       id="path5906"
       inkscape:path-effect="#path-effect5908"
       inkscape:original-d="m 139.58054,128.11079 c -8.56748,-0.83162 -12.23931,-1.60566 -20.80732,-2.43782 -8.56802,-0.83215 -30.322469,-5.50189 -45.484099,-8.25324 -15.161631,-2.75134 -17.472726,-4.51744 -26.209487,-6.77657 -8.73676,-2.25912 -14.822459,-1.77753 -22.234086,-2.6667"
       sodipodi:nodetypes="csssc" />
  </g>
</svg>
