<?xml version="1.0" encoding="UTF-8" standalone="no"?>
<!-- Created with Inkscape (http://www.inkscape.org/) -->

<svg
   width="93.922264mm"
   height="76.021049mm"
   viewBox="0 0 93.922264 76.021049"
   version="1.1"
   id="svg5"
   inkscape:version="1.2.2 (b0a8486, 2022-12-01)"
   sodipodi:docname="cat.svg"
   xmlns:inkscape="http://www.inkscape.org/namespaces/inkscape"
   xmlns:sodipodi="http://sodipodi.sourceforge.net/DTD/sodipodi-0.dtd"
   xmlns="http://www.w3.org/2000/svg"
   xmlns:svg="http://www.w3.org/2000/svg">
  <sodipodi:namedview
     id="namedview7"
     pagecolor="#ffffff"
     bordercolor="#999999"
     borderopacity="1"
     inkscape:showpageshadow="0"
     inkscape:pageopacity="0"
     inkscape:pagecheckerboard="0"
     inkscape:deskcolor="#d1d1d1"
     inkscape:document-units="mm"
     showgrid="false"
     showguides="false"
     inkscape:zoom="0.43317599"
     inkscape:cx="-241.24144"
     inkscape:cy="50.787672"
     inkscape:window-width="1280"
     inkscape:window-height="456"
     inkscape:window-x="0"
     inkscape:window-y="0"
     inkscape:window-maximized="0"
     inkscape:current-layer="layer1" />
  <defs
     id="defs2">
    <inkscape:path-effect
       effect="spiro"
       id="path-effect7522"
       is_visible="true"
       lpeversion="1" />
    <inkscape:path-effect
       effect="spiro"
       id="path-effect7518"
       is_visible="true"
       lpeversion="1" />
    <inkscape:path-effect
       effect="spiro"
       id="path-effect7514"
       is_visible="true"
       lpeversion="1" />
    <inkscape:path-effect
       effect="spiro"
       id="path-effect7510"
       is_visible="true"
       lpeversion="1" />
    <inkscape:path-effect
       effect="spiro"
       id="path-effect7506"
       is_visible="true"
       lpeversion="1" />
    <inkscape:path-effect
       effect="spiro"
       id="path-effect7298"
       is_visible="true"
       lpeversion="1" />
    <inkscape:path-effect
       effect="spiro"
       id="path-effect7294"
       is_visible="true"
       lpeversion="1" />
    <inkscape:path-effect
       effect="spiro"
       id="path-effect7286"
       is_visible="true"
       lpeversion="1" />
    <inkscape:path-effect
       effect="spiro"
       id="path-effect7282"
       is_visible="true"
       lpeversion="1" />
    <inkscape:path-effect
       effect="spiro"
       id="path-effect7278"
       is_visible="true"
       lpeversion="1" />
    <inkscape:path-effect
       effect="spiro"
       id="path-effect7274"
       is_visible="true"
       lpeversion="1" />
  </defs>
  <g
     inkscape:label="Layer 1"
     inkscape:groupmode="layer"
     id="layer1"
     transform="translate(-23.070659,-93.685697)">
    <path
       style="opacity:0.96;fill:#808080;fill-opacity:0;stroke:#000000;stroke-width:2.008;stroke-dasharray:none;stroke-dashoffset:0"
       d="m 33.195008,151.88282 c -0.238864,1.36555 -0.0681,2.80009 0.484648,4.07141 0.55275,1.27133 1.485388,2.37461 2.646958,3.13128 1.537178,1.00135 3.421033,1.37512 5.254998,1.32836 1.833965,-0.0468 3.634637,-0.49014 5.392457,-1.0152 10.20318,-3.04766 19.512221,-8.91039 29.973572,-10.89867 1.9986,-0.37985 4.098604,-0.60839 6.039881,0 0.994573,0.3117 1.941802,0.85839 2.573212,1.68764 0.315706,0.41462 0.547712,0.89586 0.652409,1.40637 0.104696,0.51051 0.07967,1.05012 -0.09401,1.54146 -0.163098,0.4614 -0.453645,0.87269 -0.811394,1.20661 -0.35775,0.33393 -0.781443,0.59253 -1.228942,0.79061 -0.894998,0.39615 -1.874212,0.55116 -2.836159,0.73177 -12.706924,2.38576 -24.015706,9.73523 -36.639772,12.52642 -2.407898,0.53239 -4.877369,0.89679 -7.336767,0.71577 -2.309417,-0.16998 -4.589973,-0.82946 -6.596153,-1.98598 -2.006179,-1.15653 -3.731516,-2.81477 -4.901144,-4.81334 -1.060591,-1.81225 -1.652888,-3.8714 -1.929868,-5.95285 -0.27698,-2.08144 -0.247494,-4.19208 -0.128373,-6.28849 0.397224,-6.99073 1.828155,-14.0263 5.144259,-20.19327 2.472914,-4.59889 5.997144,-8.66417 10.352359,-11.54465 5.61285,-3.71227 12.659202,-5.35532 19.259464,-4.04323 3.031362,0.60261 5.907831,1.79292 8.823466,2.81828 2.915635,1.02536 5.947346,1.89903 9.037187,1.82707 3.414335,-0.0795 6.789017,-1.35767 9.399346,-3.55998"
       id="path7272"
       inkscape:path-effect="#path-effect7274"
       inkscape:original-d="m 33.195008,151.88282 c 1.044133,2.40116 2.088002,4.80206 3.131606,7.20269 1.043604,2.40064 7.098567,0.20904 10.647455,0.31316 3.548888,0.10413 19.013221,-7.26551 29.973572,-10.89867 10.960354,-3.63316 4.996277,2.6e-4 6.039881,0 1.043604,-2.7e-4 2.088002,3.09057 3.131606,4.63547 1.043604,1.54489 -3.623587,1.89416 -4.876495,2.72899 -1.252905,0.83483 -24.426251,8.35121 -36.639772,12.52642 -12.213524,4.17521 -4.518058,0.40287 -7.336767,0.71577 -2.818707,0.3129 -7.217173,-2.5192 -11.497297,-6.79932 -4.280124,-4.28012 -2.26675,-9.65205 -2.058241,-12.24134 0.208509,-2.58929 2.012917,-12.34334 5.144259,-20.19327 3.131338,-7.84992 7.221018,-9.0391 10.352359,-11.54465 3.131338,-2.50555 12.892133,-2.26838 19.259464,-4.04323 6.367332,-1.77484 9.718747,4.64562 17.860653,4.64535 8.141909,-2.6e-4 6.26774,-2.6205 9.399346,-3.55998"
       sodipodi:nodetypes="cssssssssssssssc" />
    <path
       style="opacity:0.96;fill:#808080;fill-opacity:0;stroke:#000000;stroke-width:2.008;stroke-dasharray:none;stroke-dashoffset:0"
       d="m 98.232331,125.87479 c -2.540372,0.45202 -5.244123,-0.0885 -7.415441,-1.4825 -1.507779,-0.96799 -2.754253,-2.32983 -3.62239,-3.89723 -0.868136,-1.5674 -1.359998,-3.33634 -1.467863,-5.12485 -0.07806,-1.2943 0.04142,-2.59302 0,-3.88901 -0.147742,-4.62288 -2.46443,-9.13076 -6.137249,-11.94204"
       id="path7276"
       inkscape:path-effect="#path-effect7278"
       inkscape:original-d="m 98.232331,125.87479 c -2.985348,-0.6479 -4.429492,-0.83405 -7.415441,-1.4825 -2.985952,-0.64845 -3.417988,-5.889 -5.090253,-9.02208 -1.672266,-3.13308 3.02e-4,-2.5924 0,-3.88901 -3.04e-4,-1.29661 -4.823263,-8.5929 -6.137249,-11.94204"
       sodipodi:nodetypes="csssc" />
    <path
       style="opacity:0.96;fill:#808080;fill-opacity:0;stroke:#000000;stroke-width:2.008;stroke-dasharray:none;stroke-dashoffset:0"
       d="m 79.589388,99.53916 10.956826,5.59597"
       id="path7280"
       inkscape:path-effect="#path-effect7282"
       inkscape:original-d="m 79.589388,99.53916 c 2.922046,1.26788 8.035382,4.32862 10.956826,5.59597"
       sodipodi:nodetypes="cc" />
    <path
       style="opacity:0.96;fill:#808080;fill-opacity:0;stroke:#000000;stroke-width:2.008;stroke-dasharray:none;stroke-dashoffset:0"
       d="m 90.546212,105.13513 c 2.253001,-0.89446 4.607233,-1.53365 7.003231,-1.90142 3.234927,-0.49655 6.545597,-0.49655 9.780527,0"
       id="path7284"
       inkscape:path-effect="#path-effect7286"
       inkscape:original-d="m 90.546212,105.13513 c 2.334714,-0.63354 4.669124,-1.26735 7.003231,-1.90142 2.334106,-0.63408 6.520647,2.6e-4 9.780527,0" />
    <path
       style="opacity:0.96;fill:#808080;fill-opacity:0;stroke:#000000;stroke-width:2.008;stroke-dasharray:none;stroke-dashoffset:0"
       d="m 107.32997,103.23371 3.73807,-9.32662"
       id="path7292"
       inkscape:path-effect="#path-effect7294"
       inkscape:original-d="m 107.32997,103.23371 c 1.27953,-2.11243 2.45914,-7.21366 3.73807,-9.32662"
       sodipodi:nodetypes="cc" />
    <path
       style="opacity:0.96;fill:#808080;fill-opacity:0;stroke:#000000;stroke-width:2.008;stroke-dasharray:none;stroke-dashoffset:0"
       d="m 111.06804,93.90709 c 0.75991,3.639896 1.71745,7.23852 2.867,10.77474 0.72283,2.22355 1.52337,4.42915 2.01212,6.71559 0.48875,2.28643 0.65711,4.68171 0.1082,6.95445 -0.84515,3.49933 -3.46337,6.52151 -6.80655,7.85672"
       id="path7296"
       inkscape:path-effect="#path-effect7298"
       inkscape:original-d="m 111.06804,93.90709 c 0.95598,3.591847 1.91163,7.18343 2.867,10.77474 0.95536,3.59132 1.64278,10.50127 2.12032,13.67004 0.47753,3.16879 -5.55871,5.70784 -6.80655,7.85672"
       sodipodi:nodetypes="cssc" />
    <path
       style="opacity:0.96;fill:#808080;fill-opacity:0;stroke:#000000;stroke-width:2.008;stroke-dasharray:none;stroke-dashoffset:0"
       d="m 48.610443,129.74968 c 1.409214,-2.62568 3.904853,-4.6464 6.766229,-5.47863 2.708208,-0.78768 5.654816,-0.52281 8.314877,0.41469 2.66006,0.9375 5.055392,2.51757 7.21391,4.33296 5.946683,5.00136 10.244631,11.93143 12.082063,19.4813"
       id="path7504"
       inkscape:path-effect="#path-effect7506"
       inkscape:original-d="m 48.610443,129.74968 c 2.255676,-1.82594 4.511085,-3.65215 6.766229,-5.47863 2.255147,-1.82647 10.352788,3.16536 15.528787,4.74765 5.175996,1.58228 8.054972,12.9878 12.082063,19.4813" />
    <path
       style="opacity:0.96;fill:#808080;fill-opacity:0;stroke:#000000;stroke-width:2.008;stroke-dasharray:none;stroke-dashoffset:0"
       d="M 92.219284,132.10869 82.987522,148.5"
       id="path7508"
       inkscape:path-effect="#path-effect7510"
       inkscape:original-d="m 92.219284,132.10869 c -3.07699,5.46403 -6.154245,10.9278 -9.231762,16.39131" />
    <path
       style="opacity:0.96;fill:#808080;fill-opacity:0;stroke:#000000;stroke-width:2.008;stroke-dasharray:none;stroke-dashoffset:0"
       d="m 85.560735,150.18764 c 7.096894,0.60177 14.19264,1.21709 21.287185,1.84596 0.73858,0.0655 1.4876,0.13069 2.21747,0 0.95675,-0.17131 1.84784,-0.68814 2.47163,-1.43354 0.62378,-0.74539 0.97546,-1.71363 0.97546,-2.6856 0,-0.97196 -0.35168,-1.9402 -0.97546,-2.68559 -0.62379,-0.7454 -1.51488,-1.26223 -2.47163,-1.43354"
       id="path7512"
       inkscape:path-effect="#path-effect7514"
       inkscape:original-d="m 85.560735,150.18764 c 7.09599,0.61558 14.191718,1.2309 21.287185,1.84596 7.09546,0.61506 1.47858,2.7e-4 2.21747,0 0.73889,-2.6e-4 2.6e-4,-5.49192 0,-8.23827" />
    <path
       style="opacity:0.96;fill:#808080;fill-opacity:0;stroke:#000000;stroke-width:2.008;stroke-dasharray:none;stroke-dashoffset:0"
       d="m 111.67672,125.73883 c 0.51779,0.75165 0.78004,1.67604 0.73411,2.58763 -0.0459,0.91158 -0.39976,1.80493 -0.99048,2.50073 -0.24222,0.28531 -0.52288,0.53795 -0.83201,0.74894"
       id="path7516"
       inkscape:path-effect="#path-effect7518"
       inkscape:original-d="m 111.67672,125.73883 c -0.10148,2.40102 -0.15436,2.68787 -0.25637,5.08836 -0.102,2.40049 -0.55441,0.49956 -0.83201,0.74894"
       sodipodi:nodetypes="csc" />
    <path
       style="opacity:0.96;fill:#808080;fill-opacity:0;stroke:#000000;stroke-width:2.008;stroke-dasharray:none;stroke-dashoffset:0"
       d="m 94.880877,147.43041 c 5.221823,-0.63663 10.351353,-2.02549 15.181053,-4.11037 0.7778,-0.33576 1.56467,-0.70072 2.17154,-1.29183 0.68003,-0.66238 1.08646,-1.57405 1.23751,-2.51127 0.15105,-0.93721 0.0596,-1.90077 -0.15216,-2.82616 -0.43615,-1.90624 -1.38926,-3.69158 -2.73048,-5.11465"
       id="path7520"
       inkscape:path-effect="#path-effect7522"
       inkscape:original-d="m 94.880877,147.43041 c 5.060613,-1.36986 10.120973,-2.73998 15.181053,-4.11037 5.06009,-1.37039 1.44796,-0.86096 2.17154,-1.29183 0.72358,-0.43088 0.72383,-3.55802 1.08535,-5.33743 0.36152,-1.77941 -1.98202,-3.40951 -2.73048,-5.11465"
       sodipodi:nodetypes="csssc" />
  </g>
</svg>
