<?xml version="1.0" encoding="UTF-8" standalone="no"?>
<!-- Created with Inkscape (http://www.inkscape.org/) -->

<svg
   width="87.308945mm"
   height="87.914932mm"
   viewBox="0 0 87.308945 87.914932"
   version="1.1"
   id="svg5"
   inkscape:version="1.2.2 (b0a8486, 2022-12-01)"
   sodipodi:docname="dragon.svg"
   xmlns:inkscape="http://www.inkscape.org/namespaces/inkscape"
   xmlns:sodipodi="http://sodipodi.sourceforge.net/DTD/sodipodi-0.dtd"
   xmlns="http://www.w3.org/2000/svg"
   xmlns:svg="http://www.w3.org/2000/svg">
  <sodipodi:namedview
     id="namedview7"
     pagecolor="#ffffff"
     bordercolor="#999999"
     borderopacity="1"
     inkscape:showpageshadow="0"
     inkscape:pageopacity="0"
     inkscape:pagecheckerboard="0"
     inkscape:deskcolor="#d1d1d1"
     inkscape:document-units="mm"
     showgrid="false"
     inkscape:zoom="0.55599643"
     inkscape:cx="-54.856467"
     inkscape:cy="-12.590009"
     inkscape:window-width="1280"
     inkscape:window-height="456"
     inkscape:window-x="0"
     inkscape:window-y="0"
     inkscape:window-maximized="0"
     inkscape:current-layer="layer1"
     showguides="false" />
  <defs
     id="defs2">
    <inkscape:path-effect
       effect="spiro"
       id="path-effect3805"
       is_visible="true"
       lpeversion="1" />
    <inkscape:path-effect
       effect="spiro"
       id="path-effect3797"
       is_visible="true"
       lpeversion="1" />
    <inkscape:path-effect
       effect="spiro"
       id="path-effect3793"
       is_visible="true"
       lpeversion="1" />
    <inkscape:path-effect
       effect="spiro"
       id="path-effect3785"
       is_visible="true"
       lpeversion="1" />
    <inkscape:path-effect
       effect="spiro"
       id="path-effect3779"
       is_visible="true"
       lpeversion="1" />
    <inkscape:path-effect
       effect="spiro"
       id="path-effect3775"
       is_visible="true"
       lpeversion="1" />
    <inkscape:path-effect
       effect="spiro"
       id="path-effect3767"
       is_visible="true"
       lpeversion="1" />
    <inkscape:path-effect
       effect="spiro"
       id="path-effect3714"
       is_visible="true"
       lpeversion="1" />
    <inkscape:path-effect
       effect="spiro"
       id="path-effect3710"
       is_visible="true"
       lpeversion="1" />
    <inkscape:path-effect
       effect="spiro"
       id="path-effect3226"
       is_visible="true"
       lpeversion="1" />
    <inkscape:path-effect
       effect="spiro"
       id="path-effect3222"
       is_visible="true"
       lpeversion="1" />
    <inkscape:path-effect
       effect="spiro"
       id="path-effect3218"
       is_visible="true"
       lpeversion="1" />
    <inkscape:path-effect
       effect="spiro"
       id="path-effect3214"
       is_visible="true"
       lpeversion="1" />
    <inkscape:path-effect
       effect="spiro"
       id="path-effect3102"
       is_visible="true"
       lpeversion="1" />
    <inkscape:path-effect
       effect="spiro"
       id="path-effect2720"
       is_visible="true"
       lpeversion="1" />
  </defs>
  <g
     inkscape:label="Layer 1"
     inkscape:groupmode="layer"
     id="layer1"
     transform="translate(-41.980865,-42.706335)">
    <path
       style="fill:#1a1a1a;fill-opacity:0;stroke:#000000;stroke-width:1.4;stroke-dasharray:none"
       d="M 42.72703,67.093451 C 48.879203,58.613805 57.413857,51.882248 67.093451,47.874867 76.648859,43.9189 87.291413,42.627656 97.515597,44.183797"
       id="path3212"
       inkscape:path-effect="#path-effect3214"
       inkscape:original-d="m 42.72703,67.093451 c 8.122404,-6.40593 16.244546,-12.812125 24.366421,-19.218584 8.121875,-6.40646 23.444234,-2.718436 30.422146,-3.69107"
       sodipodi:nodetypes="csc" />
    <path
       style="fill:#1a1a1a;fill-opacity:0;stroke:#000000;stroke-width:1.4;stroke-dasharray:none"
       d="m 42.72703,67.093451 c 0.801216,-1.590432 2.023477,-2.966367 3.508373,-3.949476 1.484896,-0.98311 3.228873,-1.571042 5.005903,-1.687597 1.77703,-0.116555 3.58286,0.238545 5.183447,1.019279 1.600586,0.780733 2.992098,1.985231 3.994188,3.457384 1.06424,1.563457 1.685119,3.425231 1.772324,5.314516 0.08721,1.889286 -0.359526,3.800339 -1.275216,5.455185"
       id="path3216"
       inkscape:path-effect="#path-effect3218"
       inkscape:original-d="m 42.72703,67.093451 c 3.88974,-0.628917 13.8027,-0.530966 17.691911,-1.16041 3.889211,-0.629444 -1.676158,6.937687 0.497108,10.769701"
       sodipodi:nodetypes="csc" />
    <path
       style="fill:#1a1a1a;fill-opacity:0;stroke:#000000;stroke-width:1.4;stroke-dasharray:none"
       d="m 60.916049,76.702742 c 1.608149,-2.019207 4.231225,-3.185442 6.807686,-3.026737 2.576462,0.158704 5.036575,1.638053 6.384749,3.839363 0.706211,1.153107 1.115866,2.48617 1.179084,3.836871 0.06322,1.350702 -0.220135,2.7162 -0.815555,3.930228"
       id="path3220"
       inkscape:path-effect="#path-effect3222"
       inkscape:original-d="m 60.916049,76.702742 c 3.775342,0.686641 9.417622,0.126512 13.192435,0.812626 3.774815,0.686113 -0.379783,5.593833 0.363529,7.767099"
       sodipodi:nodetypes="csc" />
    <path
       style="fill:#1a1a1a;fill-opacity:0;stroke:#000000;stroke-width:1.4;stroke-dasharray:none"
       d="m 74.472013,85.282465 c 1.822608,-1.815963 4.255213,-3.008715 6.806971,-3.337586 2.551758,-0.328871 5.207292,0.208121 7.430778,1.502623 2.595545,1.511113 4.558379,4.024191 5.551427,6.858653 0.993048,2.834461 1.038114,5.967421 0.287381,8.875464 -0.599011,2.320331 -1.679938,4.482121 -2.710304,6.645701 -1.030366,2.16359 -2.026716,4.37774 -2.43753,6.73867 -0.599212,3.44364 0.121533,7.09358 1.951048,10.07193 1.829515,2.97835 4.745733,5.26474 8.062235,6.3686 3.316501,1.10387 7.007021,1.0245 10.287061,-0.18342 3.28003,-1.20792 6.13162,-3.53019 8.01275,-6.47622 1.56635,-2.45306 2.4648,-5.32809 2.57392,-8.23654"
       id="path3224"
       inkscape:path-effect="#path-effect3226"
       inkscape:original-d="m 74.472013,85.282465 c 20.076292,13.898889 9.31897,-1.846293 14.237749,-1.834963 4.918778,0.01132 4.06593,11.11293 5.838808,15.734117 1.772878,4.621191 -3.431625,8.923181 -5.147834,13.384371 -1.716209,4.4612 18.875664,6.52086 28.313094,9.78089 9.43743,3.26003 1.71621,-5.49076 2.57392,-8.23654"
       sodipodi:nodetypes="cssssc" />
    <path
       style="fill:#1a1a1a;fill-opacity:0;stroke:#000000;stroke-width:1.4;stroke-dasharray:none"
       d="m 97.515597,44.183797 c -2.973418,-0.123056 -5.97892,0.700669 -8.474108,2.322519 -2.495187,1.621849 -4.468166,4.034094 -5.562875,6.801397 -1.104602,2.79231 -1.311397,5.911215 -0.723409,8.855942 0.587989,2.944726 1.954192,5.713402 3.823145,8.063755 1.322805,1.663529 2.924398,3.144664 4.836771,4.072011 1.912373,0.927346 4.158942,1.264287 6.196099,0.658372 1.554296,-0.462297 2.91869,-1.445875 4.01631,-2.639514 1.09763,-1.19364 1.94595,-2.594428 2.69872,-4.030706 1.02172,-1.949433 1.88172,-3.982996 2.9713,-5.895326 1.54163,-2.70572 3.53875,-5.151178 5.8819,-7.202326"
       id="path3708"
       inkscape:path-effect="#path-effect3710"
       inkscape:original-d="m 97.515597,44.183797 c -3.063679,4.723384 -10.972777,4.401059 -14.036983,9.123916 -3.064205,4.722855 -7.682425,0.641067 3.099736,16.919697 4.693718,7.086455 7.474917,13.072054 11.03287,4.730383 1.064164,-2.494947 -12.624211,-19.75597 6.71503,-6.67022 4.15622,2.812275 32.41067,-13.041553 2.9713,-5.895326 -7.962171,1.932769 3.7367,-5.656254 5.8819,-7.202326"
       sodipodi:nodetypes="csssssc" />
    <path
       style="fill:#1a1a1a;fill-opacity:0;stroke:#000000;stroke-width:1.4;stroke-dasharray:none"
       d="m 120.28775,114.11034 c -0.79868,1.70838 -1.66755,3.38395 -2.60367,5.02106 -1.32305,2.31378 -2.83234,4.60634 -4.99764,6.16053 -1.59216,1.14281 -3.49652,1.83856 -5.4475,2.02477 -1.95097,0.18621 -3.94411,-0.13399 -5.7519,-0.89087 -2.08871,-0.87449 -3.929741,-2.33384 -5.253195,-4.17121 -1.323454,-1.83736 -2.124699,-4.04752 -2.2804,-6.30655 -0.169189,-2.45471 0.415881,-4.9259 1.449961,-7.15859 1.03408,-2.23269 2.505364,-4.24047 4.143609,-6.07633 1.381595,-1.54825 2.885015,-2.98216 4.354275,-4.447478 1.99701,-1.991645 3.93903,-4.050651 5.61029,-6.322563 2.10209,-2.857582 3.78258,-6.103341 4.3373,-9.607171 0.48464,-3.061164 0.0946,-6.199585 -0.58923,-9.222489 -0.63327,-2.799299 -1.52397,-5.650762 -1.06288,-8.483516 0.39151,-2.405252 1.79602,-4.628946 3.79972,-6.015914"
       id="path3712"
       inkscape:path-effect="#path-effect3714"
       inkscape:original-d="m 120.28775,114.11034 c -0.9556,1.65196 -1.64754,3.36963 -2.60367,5.02106 -0.95613,1.65144 -3.26552,4.37121 -4.99764,6.16053 -1.73213,1.78933 -7.61996,0.47029 -11.1994,1.1339 -3.579445,0.66362 -5.022133,-6.9849 -7.533595,-10.47776 -2.511464,-3.49284 3.19809,-8.76068 5.59357,-13.23492 2.395475,-4.474228 3.228825,-2.51331 4.354275,-4.447478 1.12545,-1.934175 -113.3142664,84.194388 5.61029,-6.322563 4.00928,-3.051581 2.13176,-2.390947 4.3373,-9.607171 2.20554,-7.216225 0.49113,-5.390413 -0.58923,-9.222489 -1.08036,-3.832069 -0.73886,-7.111892 -1.06288,-8.483516 -0.31535,-1.334883 1.92995,-4.723615 3.79972,-6.015914"
       sodipodi:nodetypes="cssssssssssc" />
    <path
       style="fill:#1a1a1a;fill-opacity:0;stroke:#000000;stroke-width:1.4;stroke-dasharray:none"
       d="m 112.52202,55.6964 c 0.2003,-0.561643 0.41633,-1.117675 0.64776,-1.667223 0.28602,-0.679191 0.61401,-1.373047 1.18407,-1.840109 0.5936,-0.486356 1.37955,-0.667056 2.14301,-0.744771 1.51263,-0.153975 3.07686,0.04832 4.45009,0.701002 1.25816,0.597985 2.31405,1.546312 3.29669,2.533718 0.98264,0.987406 1.91723,2.032132 3.01893,2.88466 0.20681,0.160038 0.41947,0.313259 0.61348,0.488601 0.19401,0.175342 0.37033,0.374869 0.48865,0.608072 0.11728,0.231158 0.17452,0.491017 0.17676,0.750217 0.002,0.2592 -0.0497,0.517673 -0.14106,0.760247 -0.1571,0.417106 -0.43261,0.78887 -0.78596,1.060537"
       id="path3765"
       inkscape:path-effect="#path-effect3767"
       inkscape:original-d="m 112.52202,55.6964 c 0.0986,-0.902193 0.54964,-0.76458 0.64776,-1.667223 0.0981,-0.902643 0.78963,-1.226515 1.18407,-1.840109 0.39445,-0.613594 1.59128,-0.364836 2.14301,-0.744771 0.55172,-0.379931 9.58367,-10.998614 4.45009,0.701002 -0.46854,1.067829 4.68219,4.075201 6.31562,5.418378 1.63343,1.343173 -0.12618,0.107955 1.10213,1.096673 1.22832,0.988718 0.0241,1.0072 0.0357,1.510464 0.0117,0.503261 -0.52373,0.70725 -0.78596,1.060537"
       sodipodi:nodetypes="csssssscc" />
    <path
       style="fill:#1a1a1a;fill-opacity:0;stroke:#000000;stroke-width:1.4;stroke-dasharray:none"
       d="m 127.61444,61.231351 c -0.38791,-0.529421 -0.93018,-0.944328 -1.54261,-1.180307 -0.6611,-0.25473 -1.38293,-0.299921 -2.09138,-0.305848 -0.99694,-0.0083 -1.99448,0.05556 -2.98221,0.191037"
       id="path3773"
       inkscape:path-effect="#path-effect3775"
       inkscape:original-d="m 127.61444,61.231351 c -0.41653,-0.364001 -1.59866,-0.65971 -1.54261,-1.180307 0.0882,-0.818915 -1.31707,-0.106008 -2.09138,-0.305848 -0.77431,-0.199843 -2.37463,-0.0083 -2.98221,0.191037"
       sodipodi:nodetypes="cssc" />
    <path
       style="fill:#1a1a1a;fill-opacity:0;stroke:#000000;stroke-width:1.4;stroke-dasharray:none"
       d="m 120.99824,59.936233 c -0.40692,0.02527 -0.81635,0.01009 -1.22028,-0.04524 -0.91955,-0.125968 -1.7962,-0.456605 -2.67948,-0.74167 -0.63209,-0.203997 -1.2714,-0.385584 -1.91635,-0.544304"
       id="path3777"
       inkscape:path-effect="#path-effect3779"
       inkscape:original-d="m 120.99824,59.936233 c -0.66662,0.332311 -0.55314,-0.377105 -1.22028,-0.04524 -0.66712,0.331862 -1.5085,-1.093511 -2.67948,-0.74167 -0.93512,0.280971 -1.23463,-0.19449 -1.91635,-0.544304"
       sodipodi:nodetypes="cssc" />
    <path
       style="fill:#1a1a1a;fill-opacity:0;stroke:#000000;stroke-width:1.4;stroke-dasharray:none"
       d="m 119.77796,51.510999 c -1.11557,-1.351561 -2.48646,-2.491649 -4.01873,-3.342148 -0.51005,-0.283104 -1.03774,-0.534413 -1.57899,-0.751985"
       id="path3783"
       inkscape:path-effect="#path-effect3785"
       inkscape:original-d="m 119.77796,51.510999 c -1.33933,-1.113825 -2.6789,-2.227874 -4.01873,-3.342148 -1.33982,-1.114276 -1.05241,-0.501099 -1.57899,-0.751985"
       sodipodi:nodetypes="csc" />
    <path
       style="fill:#1a1a1a;fill-opacity:0;stroke:#000000;stroke-width:1.4;stroke-dasharray:none"
       d="m 114.18024,47.416866 c 1.21414,0.338951 2.2844,1.166325 2.91823,2.255951 0.30725,0.528202 0.51447,1.114362 0.60745,1.718311"
       id="path3791"
       inkscape:path-effect="#path-effect3793"
       inkscape:original-d="m 114.18024,47.416866 c 0.97299,0.752208 1.94574,1.504193 2.91823,2.255951 0.9725,0.751758 0.40522,1.145765 0.60745,1.718311"
       sodipodi:nodetypes="csc" />
    <path
       style="fill:#1a1a1a;fill-opacity:0;stroke:#000000;stroke-width:1.4;stroke-dasharray:none"
       d="m 117.09847,50.848521 c -0.98824,-0.671315 -2.05201,-1.231353 -3.16477,-1.666144 -0.81227,-0.317379 -1.65384,-0.56885 -2.51754,-0.689387 -0.41306,-0.05765 -0.83032,-0.08521 -1.24738,-0.08241"
       id="path3795"
       inkscape:path-effect="#path-effect3797"
       inkscape:original-d="m 117.09847,50.848521 c -1.05467,-0.555156 -2.10959,-1.110537 -3.16477,-1.666144 -1.05518,-0.555606 -1.67811,-0.459367 -2.51754,-0.689387 -0.83944,-0.230022 -0.83134,-0.05471 -1.24738,-0.08241"
       sodipodi:nodetypes="cssc" />
    <path
       style="fill:#1a1a1a;fill-opacity:0;stroke:#000000;stroke-width:1.4;stroke-dasharray:none"
       d="m 109.02974,48.298619 c 1.46918,0.104764 2.91349,0.544366 4.19191,1.275878 0.80563,0.460983 1.54559,1.036529 2.19068,1.703918"
       id="path3803"
       inkscape:path-effect="#path-effect3805"
       inkscape:original-d="m 109.02974,48.298619 c 0.84594,0.384168 3.34647,0.892162 4.19191,1.275878 0.84544,0.383716 1.46071,1.136171 2.19068,1.703918"
       sodipodi:nodetypes="csc" />
  </g>
</svg>
