<?xml version="1.0" encoding="utf-8"?>
<!-- Svg Vector Icons : http://www.onlinewebfonts.com/icon -->
<!DOCTYPE svg PUBLIC "-//W3C//DTD SVG 1.1//EN" "http://www.w3.org/Graphics/SVG/1.1/DTD/svg11.dtd">
<svg version="1.1" xmlns="http://www.w3.org/2000/svg" xmlns:xlink="http://www.w3.org/1999/xlink" x="0px" y="0px" viewBox="0 0 1000 1000" enable-background="new 0 0 1000 1000" xml:space="preserve">
<metadata> Svg Vector Icons : http://www.onlinewebfonts.com/icon </metadata>
<g><g><path d="M983,665.4C908.8,650,870.7,631.2,851.4,617c28,1.1,58-12.3,59.7-13.2c4-1.8,6-6.4,4.7-10.6c-1.4-4.2-5.6-6.8-10-5.9c-45.8,8.6-72.8-32.5-90.7-59.7c-2.3-3.5-4.4-6.7-6.4-9.6c-44.1-63.7-108.6-66-127.5-65.1c-46.2-60.8-151.3-62.4-155.5-62.4c-50.2-2.4-65.1-12.7-68.5-15.6c5.7-54.4-12.4-95.3-28.9-120.2c0.5,0.3,1,0.6,1.5,1c3,2,7,1.9,10-0.3c2.9-2.1,4.3-5.8,3.3-9.4c-10-36.8-46.6-69.4-73.5-89c3.5,0.6,7.3-1.1,9.1-4.4c1.9-3.5,1.3-7.8-1.6-10.6c-60.3-58.1-131-49.9-153.7-45.4c-9.9-15.2-35.6-31.7-44.4-37.1c-3.8-2.3-9-1.8-11.7,1.7c-2.3,3-2.7,6.8-0.8,9.8c-3.2-1.6-7.1-1.2-9.8,1.3c-2.8,2.5-3.7,6.5-2.2,10c5,11.6,2,36.9-0.1,48.3c-21.3,23.9-43.1,88.5-46.4,98.6l-8.5,12.5c-7.8,11.2-10.6,26.9-7.2,41.2c2.4,10.2,7.5,17.8,14.5,21.5c16.8,9.1,31.1,10.6,42.4,4.6c10.8-5.8,15.5-16.9,17.5-24.2c27.6-6,49-29.1,58.4-40.8c7.2,5.6,11.8,13.6,14.2,24.2c7.5,33.8-12,80.9-25,97.8c-24,31.2-26.4,84.7-26.5,103.4c-32.1,9.5-71.2-2.9-72.8-3.3c-25.1-4-44.4-0.8-56.9,9.3c-12.4,10-13.3,22.9-13.3,23.5c-6.3,40.9-26.7,65.8-26.9,66.1c-0.5,0.6-0.9,1.2-1.2,1.8C1.3,599,17,635.2,21,643.3l4.4,45.7c2.9,10.2,7.8,17.1,14.7,20.4c8.3,4,15.8,0.9,17.1,0.3c11.6-5.8,19.3-14.6,22.8-26.2c8-26.1-9.1-56.7-9.8-58c-1.1-1.9-2.8-3.3-4.9-4l-4-1.3c1.8-51.4,15.4-73.7,26.8-83.4c4.2-3.5,8.2-5.5,11.8-6.8c-2.8,6.7-5,14-6.3,18.9c-0.7,17.3-5.7,35.5-7,40c-19,31.5-2.9,52.3-2.2,53.2c0.5,0.6,1.2,1.2,1.9,1.7c8.7,6,15.8,21.7,18.4,28.5c2.5,31.5,23.9,43.5,24.7,44c4,2.2,7.6,3,10.5,3c3.9,0,6.8-1.3,8.6-2.5c12.5-8.2,11.7-33.3,10.8-42.2c1.4-15.9-2-27.9-10-35.6c-4.3-4.2-9.2-6.4-13.5-7.5c0.9-9.8-0.7-20.2-1.3-23.2c-11.8-47.3,20.1-57.8,23.9-58.8c0.5-0.1,0.7-0.7,1.1-0.9c26.4,7.3,61.2,11.3,99.7,2.1c95.8,101.2,190.4,106.8,209.6,106.8c0.2,0,0.2,0,0.4,0c1.9,4,3.8,7.9,5.6,11.5c11,22.1,36.1,60.6,37,62c19.8,33,20.9,51.5,18.3,61.4c-1.9,7.2-5.9,9.9-5.8,9.9l0,0c-36.8,15.1-52.3,31.1-58.2,39.1c-47.2,0.3-61.6,16.7-63.2,18.8c-8.7,11.5-17.8,26-11.1,36.1c1,1.5,2.2,2.7,3.5,3.6c-7.6,8.5-7.1,15.9-5.3,20.5c6.1,15.8,36.2,19.8,43.5,20.4c2.2,0.7,4.5,1,6.7,1c3.8,0,7.5-1,11-2.9c11.1-6.2,17.9-21,21-29.5c14.6-1.9,29.7-9.4,30.4-9.7c1.7-0.9,3.2-2.4,4-4.1c18.5-39.4,61.6-60.4,69-63.8c20.4-2.5,35-10,43.3-22.6c11.9-18.2,5.5-39.4,4.8-41.2c-23.8-53.9-7.9-81-4.5-85.8c94.1-63.5,96.1-130.2,93.1-154.5c4.7-0.3,8.5,0.7,11.6,2.9c12.6,9.4,13.2,39.6,13.6,59.6c0.1,7.2,0.3,13.4,0.8,17.9c4.5,37.5,20.8,64.9,48.3,81.2c71.3,42.2,192.4-5.1,197.6-7.2c3.6-1.5,5.8-5,5.5-8.9C989.5,669.3,986.7,666.2,983,665.4z M117.4,611.9c1.2,6.8,1.9,19-0.2,23.7c-1.3,2.9-1,6.2,0.9,8.8c1.9,2.5,5,3.9,8.1,3.5c0,0,6.5-0.5,10.9,3.7c5.1,5,5.4,14.5,4.8,23.1c1,11.5-0.4,25.1-4,26.3c-0.6-0.4-14.5-8.6-15.9-31c0-0.8-0.2-1.6-0.5-2.3c-1-2.7-9.3-26.1-23.9-37.2c-1.8-3.1-7-14.9,4.4-33.3c0.4-0.6,0.7-1.4,0.9-2c0.3-1,7.1-23.4,7.7-43.5c2-7.2,5-15,7.2-19.3c4.8,2.5,11.3,5.6,19.3,8.8C123.4,551.4,107.4,572,117.4,611.9z M795.8,674.2c-22.5-13.4-36-36.4-39.9-68.3c-0.5-4.1-0.5-9.7-0.7-16.2c-0.5-24.8-1.2-58.9-20.7-73.3c-9.1-6.7-20.7-8.3-34.6-4.4c-2.2,0.6-4.2,2.2-5.3,4.2c-1.1,2-1.4,4.5-0.8,6.7c0.9,3,20,74.9-85.4,145.4c-0.6,0.4-1.3,1-1.8,1.5c-1.2,1.4-29.5,35.5,0.8,104.2c0.1,0.1,4.2,14.3-3.1,25.4c-5.4,8.3-16.1,13.3-31.8,14.9c-0.9,0.1-1.7,0.3-2.5,0.6c-2.2,0.9-53.8,23-77.7,70.1c-6.2,2.7-17.9,7.2-26.6,7.2c-4,0-7.4,2.6-8.5,6.5c-1.8,6.5-7.6,21-14.5,24.8c-1.4,0.8-2.7,0.9-5.9,0.1c-13.8-1.3-28.9-6-30.5-9.1c0-0.3,0.5-1.5,3.2-4.5l7.6-11.9c2-3,1.8-6.9-0.3-9.9c-2.1-2.9-5.7-4.2-9-3.4c1.1-2.6,3.5-7,8.6-13.8c0.1-0.1,11.5-12.2,50.7-12.2c1.2,0,2.6-0.1,3.6,0c3.3,0,6.4-2,7.9-5c0.1-0.2,9.6-18,52.8-35.8c1.1-0.5,10.8-5.8,15.1-20.2c5.5-19.1-1.1-44.7-20.1-76.4c-0.3-0.4-25.6-39.4-36.1-60.5c-11.6-23.3-26-52.1-10.6-93.3c1.7-4.5-0.6-9.5-5.1-11.3c-4.5-1.7-9.6,0.6-11.3,5.1c-11.9,31.7-8.6,57.2-1.5,78c-26-1.5-103.9-13.9-183.8-94.7c21.4-7.5,43.5-19.3,65.8-37.3c3.7-3,4.3-8.6,1.3-12.3c-3-3.8-8.6-4.4-12.3-1.3c-108.3,87.7-210.5,21.3-214.8,18.4c-1-0.7-2.2-1.2-3.4-1.4c-0.8-0.1-19.5-3.1-37.6,12c-21.6,18-32.9,52.7-33.7,103.3c0,3.8,2.4,7.2,6,8.4l6.8,2.3c3.5,7.2,11.5,26.4,6.8,41.4c-2.1,6.8-6.7,12-13.2,15.3c-0.1,0.1-1.3,0.5-2.5-0.2c-1-0.5-3.4-2.4-5-7.7L38.2,640c-0.1-1.2-0.5-2.3-1-3.3c-0.2-0.4-17.7-33.9-5.3-61.6c4.2-5.4,23.5-32,30.1-74.5c0,0,0.6-6.5,6.9-11.6c8.4-6.8,23.3-8.8,41.8-5.9c2,0.6,50,16,89,0.7c3.5-1.4,5.7-4.8,5.5-8.5c0-0.6-2.2-66.2,22.8-98.6c17.3-22.4,36.7-73.9,28.2-112.3c-4-18.2-14.2-32-29.4-39.9c-4-2.1-8.8-0.8-11.3,2.9c-0.2,0.4-25.4,37.4-57.3,41.1c-4.1,0.5-7.3,3.7-7.7,7.8c0,0.1-1.6,12.9-9.6,17.2c-7.2,3.9-18-0.3-25.8-4.5c-1.7-0.9-4.3-4.2-5.7-10.2c-2.2-9.4-0.5-20,4.6-27.1l9.3-13.6c0.5-0.7,0.9-1.5,1.1-2.3c6.7-20.7,27.6-78,44.5-94.8c1.2-1.2,2.1-2.8,2.4-4.5c0.5-2.7,3.7-19.1,3.6-35.7c2.2,1.9,5.3,2.5,8.1,1.7c3.9-1.2,6.5-5,6.2-9c-0.2-2.2-0.4-4.3-0.6-6.2c11.8,8.9,20.7,17.5,21.4,21.1c0.4,2.5,1.9,4.6,4,5.9c2.1,1.3,4.7,1.6,7.1,1c0.7-0.2,61.4-17.3,119.6,20.1c-3.1,0.1-5.9,0.5-8.1,1.4c-3.2,1.2-5.4,4.1-5.7,7.5c-0.3,3.4,1.4,6.7,4.4,8.4c0.7,0.4,58.8,33.6,84.8,75.4c-7.5-3.1-14.4-4.8-19.4-3.3c-3,0.9-5.4,3.4-6,6.5c-0.7,3.1,0.4,6.3,2.8,8.4c0.6,0.5,56.6,50.5,46.2,136.4c-0.2,1.4,0,2.7,0.5,4c2,5.6,14.2,24.4,85.3,27.8c1.1,0,105.2,1.5,144.6,58.9c1.8,2.7,5.1,4.2,8.3,3.8c0.7,0,71.3-7.9,116.3,57.3c1.9,2.8,4,5.9,6.1,9.2c13.1,20,32.3,49.1,61.2,62.1c-12.4,1-24.4-0.5-32.4-7.5c-2.9-2.5-7-2.8-10.3-0.9c-3.2,1.9-4.9,5.8-4,9.5c1.1,4.8,13.6,44.7,133.5,75C909.4,686.6,839.8,700.4,795.8,674.2z"/></g><g></g><g></g><g></g><g></g><g></g><g></g><g></g><g></g><g></g><g></g><g></g><g></g><g></g><g></g><g></g></g>
</svg>